<?xml version="1.0" encoding="UTF-8" standalone="no"?><svg xmlns="http://www.w3.org/2000/svg" xmlns:xlink="http://www.w3.org/1999/xlink" contentStyleType="text/css" height="969px" preserveAspectRatio="none" style="width:756px;height:969px;background:#FFFFFF;" version="1.1" viewBox="0 0 756 969" width="756px" zoomAndPan="magnify"><defs/><g><!--MD5=[740579b96b9194b1bdc9730e9ee4c6cb]
cluster package_usb_relay_module--><g id="cluster_package_usb_relay_module"><path d="M24.5,6 L165.5,6 A3.75,3.75 0 0 1 168,8.5 L175,28.2969 L500.5,28.2969 A2.5,2.5 0 0 1 503,30.7969 L503,321.5 A2.5,2.5 0 0 1 500.5,324 L24.5,324 A2.5,2.5 0 0 1 22,321.5 L22,8.5 A2.5,2.5 0 0 1 24.5,6 " fill="none" style="stroke:#000000;stroke-width:1.5;"/><line style="stroke:#000000;stroke-width:1.5;" x1="22" x2="175" y1="28.2969" y2="28.2969"/><text fill="#000000" font-family="sans-serif" font-size="14" font-weight="bold" lengthAdjust="spacing" textLength="140" x="26" y="20.9951">USB Relay Module</text></g><!--MD5=[271d8dfcd71d6b821f55f21a34354a8f]
cluster package_cli_apps--><g id="cluster_package_cli_apps"><path d="M208.5,57 L278.5,57 A3.75,3.75 0 0 1 281,59.5 L288,79.2969 L460.5,79.2969 A2.5,2.5 0 0 1 463,81.7969 L463,151.5 A2.5,2.5 0 0 1 460.5,154 L208.5,154 A2.5,2.5 0 0 1 206,151.5 L206,59.5 A2.5,2.5 0 0 1 208.5,57 " fill="none" style="stroke:#000000;stroke-width:1.5;"/><line style="stroke:#000000;stroke-width:1.5;" x1="206" x2="288" y1="79.2969" y2="79.2969"/><text fill="#000000" font-family="sans-serif" font-size="14" font-weight="bold" lengthAdjust="spacing" textLength="69" x="210" y="71.9951">CLI Apps</text></g><!--MD5=[995a3ce6a08c5bcf6a1cb87d00834e5b]
cluster package_gui_app--><g id="cluster_package_gui_app"><path d="M56.5,57 L120.5,57 A3.75,3.75 0 0 1 123,59.5 L130,79.2969 L179.5,79.2969 A2.5,2.5 0 0 1 182,81.7969 L182,151.5 A2.5,2.5 0 0 1 179.5,154 L56.5,154 A2.5,2.5 0 0 1 54,151.5 L54,59.5 A2.5,2.5 0 0 1 56.5,57 " fill="none" style="stroke:#000000;stroke-width:1.5;"/><line style="stroke:#000000;stroke-width:1.5;" x1="54" x2="130" y1="79.2969" y2="79.2969"/><text fill="#000000" font-family="sans-serif" font-size="14" font-weight="bold" lengthAdjust="spacing" textLength="63" x="58" y="71.9951">GUI App</text></g><!--MD5=[6b4c1292f3884f3efff407e3b954895a]
cluster package_utils--><g id="cluster_package_utils"><path d="M545.5,211 L580.5,211 A3.75,3.75 0 0 1 583,213.5 L590,233.2969 L746.5,233.2969 A2.5,2.5 0 0 1 749,235.7969 L749,759.5 A2.5,2.5 0 0 1 746.5,762 L545.5,762 A2.5,2.5 0 0 1 543,759.5 L543,213.5 A2.5,2.5 0 0 1 545.5,211 " fill="none" style="stroke:#000000;stroke-width:1.5;"/><line style="stroke:#000000;stroke-width:1.5;" x1="543" x2="590" y1="233.2969" y2="233.2969"/><text fill="#000000" font-family="sans-serif" font-size="14" font-weight="bold" lengthAdjust="spacing" textLength="34" x="547" y="225.9951">Utils</text></g><!--MD5=[166ee38f09b1c43130102ccc607e5cb5]
cluster package_hidapi--><g id="cluster_package_hidapi"><path d="M98.5,396 L146.5,396 A3.75,3.75 0 0 1 149,398.5 L156,418.2969 L388.5,418.2969 A2.5,2.5 0 0 1 391,420.7969 L391,490.5 A2.5,2.5 0 0 1 388.5,493 L98.5,493 A2.5,2.5 0 0 1 96,490.5 L96,398.5 A2.5,2.5 0 0 1 98.5,396 " fill="none" style="stroke:#000000;stroke-width:1.5;"/><line style="stroke:#000000;stroke-width:1.5;" x1="96" x2="156" y1="418.2969" y2="418.2969"/><text fill="#000000" font-family="sans-serif" font-size="14" font-weight="bold" lengthAdjust="spacing" textLength="47" x="100" y="410.9951">hidapi</text></g><!--MD5=[9c53c283d29e5bd0ea5c68b24ef19912]
cluster Windows OS--><g id="cluster_Windows OS"><path d="M283.5,542 L383.5,542 A3.75,3.75 0 0 1 386,544.5 L393,564.2969 L393.5,564.2969 A2.5,2.5 0 0 1 396,566.7969 L396,636.5 A2.5,2.5 0 0 1 393.5,639 L283.5,639 A2.5,2.5 0 0 1 281,636.5 L281,544.5 A2.5,2.5 0 0 1 283.5,542 " fill="none" style="stroke:#000000;stroke-width:1.5;"/><line style="stroke:#000000;stroke-width:1.5;" x1="281" x2="393" y1="564.2969" y2="564.2969"/><text fill="#000000" font-family="sans-serif" font-size="14" font-weight="bold" lengthAdjust="spacing" textLength="99" x="285" y="556.9951">Windows OS</text></g><!--MD5=[c42d645ca5058f4ff4f9eb5277eaa531]
cluster Linux OS--><g id="cluster_Linux OS"><path d="M130.5,542 L200.5,542 A3.75,3.75 0 0 1 203,544.5 L210,564.2969 L245.5,564.2969 A2.5,2.5 0 0 1 248,566.7969 L248,636.5 A2.5,2.5 0 0 1 245.5,639 L130.5,639 A2.5,2.5 0 0 1 128,636.5 L128,544.5 A2.5,2.5 0 0 1 130.5,542 " fill="none" style="stroke:#000000;stroke-width:1.5;"/><line style="stroke:#000000;stroke-width:1.5;" x1="128" x2="210" y1="564.2969" y2="564.2969"/><text fill="#000000" font-family="sans-serif" font-size="14" font-weight="bold" lengthAdjust="spacing" textLength="69" x="132" y="556.9951">Linux OS</text></g><!--MD5=[4dc5522eab3f27dbb14e4d5b6f4371d5]
cluster relay--><g id="cluster_relay"><polygon fill="none" points="20,725,30,715,220,715,220,855,210,865,20,865,20,725" style="stroke:#181818;stroke-width:1.0;"/><line style="stroke:#181818;stroke-width:1.0;" x1="210" x2="220" y1="725" y2="715"/><line style="stroke:#181818;stroke-width:1.0;" x1="20" x2="210" y1="725" y2="725"/><line style="stroke:#181818;stroke-width:1.0;" x1="210" x2="210" y1="725" y2="865"/><text fill="#000000" font-family="sans-serif" font-size="14" font-weight="bold" lengthAdjust="spacing" textLength="78" x="77" y="740.9951">USB Relay</text></g><!--MD5=[2529e969a3f0df9048be04cb72749dd7]
entity libusbrelaymodule--><g id="elem_libusbrelaymodule"><rect fill="#90EE90" height="46.2969" rx="2.5" ry="2.5" style="stroke:#181818;stroke-width:0.5;" width="165" x="187.5" y="254"/><rect fill="#90EE90" height="10" style="stroke:#181818;stroke-width:0.5;" width="15" x="332.5" y="259"/><rect fill="#90EE90" height="2" style="stroke:#181818;stroke-width:0.5;" width="4" x="330.5" y="261"/><rect fill="#90EE90" height="2" style="stroke:#181818;stroke-width:0.5;" width="4" x="330.5" y="265"/><text fill="#000000" font-family="sans-serif" font-size="14" lengthAdjust="spacing" textLength="125" x="202.5" y="286.9951">libusbrelaymodule</text></g><!--MD5=[9be535e9d61bace24dd43c5622a22b83]
entity getrelay--><g id="elem_getrelay"><rect fill="#90EE90" height="46.2969" rx="2.5" ry="2.5" style="stroke:#181818;stroke-width:0.5;" width="95" x="222.5" y="92"/><rect fill="#90EE90" height="10" style="stroke:#181818;stroke-width:0.5;" width="15" x="297.5" y="97"/><rect fill="#90EE90" height="2" style="stroke:#181818;stroke-width:0.5;" width="4" x="295.5" y="99"/><rect fill="#90EE90" height="2" style="stroke:#181818;stroke-width:0.5;" width="4" x="295.5" y="103"/><text fill="#000000" font-family="sans-serif" font-size="14" lengthAdjust="spacing" textLength="55" x="237.5" y="124.9951">getrelay</text></g><!--MD5=[ac36f0a812e6d058a0e8ac1d0cdd25da]
entity setrelay--><g id="elem_setrelay"><rect fill="#90EE90" height="46.2969" rx="2.5" ry="2.5" style="stroke:#181818;stroke-width:0.5;" width="94" x="353" y="92"/><rect fill="#90EE90" height="10" style="stroke:#181818;stroke-width:0.5;" width="15" x="427" y="97"/><rect fill="#90EE90" height="2" style="stroke:#181818;stroke-width:0.5;" width="4" x="425" y="99"/><rect fill="#90EE90" height="2" style="stroke:#181818;stroke-width:0.5;" width="4" x="425" y="103"/><text fill="#000000" font-family="sans-serif" font-size="14" lengthAdjust="spacing" textLength="54" x="368" y="124.9951">setrelay</text></g><!--MD5=[fe532439f5d68113498cb08ca35fce3a]
entity relaybox--><g id="elem_relaybox"><rect fill="#90EE90" height="46.2969" rx="2.5" ry="2.5" style="stroke:#181818;stroke-width:0.5;" width="97" x="69.5" y="92"/><rect fill="#90EE90" height="10" style="stroke:#181818;stroke-width:0.5;" width="15" x="146.5" y="97"/><rect fill="#90EE90" height="2" style="stroke:#181818;stroke-width:0.5;" width="4" x="144.5" y="99"/><rect fill="#90EE90" height="2" style="stroke:#181818;stroke-width:0.5;" width="4" x="144.5" y="103"/><text fill="#000000" font-family="sans-serif" font-size="14" lengthAdjust="spacing" textLength="57" x="84.5" y="124.9951">relaybox</text></g><!--MD5=[8261616bb20223fc60620060f2158214]
entity libcpputils--><g id="elem_libcpputils"><rect fill="#90EE90" height="46.2969" rx="2.5" ry="2.5" style="stroke:#181818;stroke-width:0.5;" width="109" x="595.5" y="254"/><rect fill="#90EE90" height="10" style="stroke:#181818;stroke-width:0.5;" width="15" x="684.5" y="259"/><rect fill="#90EE90" height="2" style="stroke:#181818;stroke-width:0.5;" width="4" x="682.5" y="261"/><rect fill="#90EE90" height="2" style="stroke:#181818;stroke-width:0.5;" width="4" x="682.5" y="265"/><text fill="#000000" font-family="sans-serif" font-size="14" lengthAdjust="spacing" textLength="69" x="610.5" y="286.9951">libcpputils</text></g><!--MD5=[396bedff6d252d5f81bab12d46e0bed0]
entity liblightargparser--><g id="elem_liblightargparser"><rect fill="#90EE90" height="46.2969" rx="2.5" ry="2.5" style="stroke:#181818;stroke-width:0.5;" width="150" x="575" y="431"/><rect fill="#90EE90" height="10" style="stroke:#181818;stroke-width:0.5;" width="15" x="705" y="436"/><rect fill="#90EE90" height="2" style="stroke:#181818;stroke-width:0.5;" width="4" x="703" y="438"/><rect fill="#90EE90" height="2" style="stroke:#181818;stroke-width:0.5;" width="4" x="703" y="442"/><text fill="#000000" font-family="sans-serif" font-size="14" lengthAdjust="spacing" textLength="110" x="590" y="463.9951">liblightargparser</text></g><!--MD5=[d7a01c17c4163d10b2c6131af23a7c66]
entity logger--><g id="elem_logger"><rect fill="#90EE90" height="46.2969" rx="2.5" ry="2.5" style="stroke:#181818;stroke-width:0.5;" width="84" x="608" y="577"/><rect fill="#90EE90" height="10" style="stroke:#181818;stroke-width:0.5;" width="15" x="672" y="582"/><rect fill="#90EE90" height="2" style="stroke:#181818;stroke-width:0.5;" width="4" x="670" y="584"/><rect fill="#90EE90" height="2" style="stroke:#181818;stroke-width:0.5;" width="4" x="670" y="588"/><text fill="#000000" font-family="sans-serif" font-size="14" lengthAdjust="spacing" textLength="44" x="623" y="609.9951">logger</text></g><!--MD5=[b9c863dc79181c6c2c64272f159bcfbb]
entity jsoncpp--><g id="elem_jsoncpp"><rect fill="#F1F1F1" height="46.2969" rx="2.5" ry="2.5" style="stroke:#181818;stroke-width:0.5;" width="95" x="602.5" y="692"/><rect fill="#F1F1F1" height="10" style="stroke:#181818;stroke-width:0.5;" width="15" x="677.5" y="697"/><rect fill="#F1F1F1" height="2" style="stroke:#181818;stroke-width:0.5;" width="4" x="675.5" y="699"/><rect fill="#F1F1F1" height="2" style="stroke:#181818;stroke-width:0.5;" width="4" x="675.5" y="703"/><text fill="#000000" font-family="sans-serif" font-size="14" lengthAdjust="spacing" textLength="55" x="617.5" y="724.9951">jsoncpp</text></g><!--MD5=[5c940e3d8b07681adfcee1b046aa9c2a]
entity libhidapi_hidraw--><g id="elem_libhidapi_hidraw"><rect fill="#F1F1F1" height="46.2969" rx="2.5" ry="2.5" style="stroke:#181818;stroke-width:0.5;" width="146" x="112" y="431"/><rect fill="#F1F1F1" height="10" style="stroke:#181818;stroke-width:0.5;" width="15" x="238" y="436"/><rect fill="#F1F1F1" height="2" style="stroke:#181818;stroke-width:0.5;" width="4" x="236" y="438"/><rect fill="#F1F1F1" height="2" style="stroke:#181818;stroke-width:0.5;" width="4" x="236" y="442"/><text fill="#000000" font-family="sans-serif" font-size="14" lengthAdjust="spacing" textLength="106" x="127" y="463.9951">libhidapi-hidraw</text></g><!--MD5=[7a419dd2dca01cf4a783205731bdcd78]
entity hidapi--><g id="elem_hidapi"><rect fill="#F1F1F1" height="46.2969" rx="2.5" ry="2.5" style="stroke:#181818;stroke-width:0.5;" width="81" x="293.5" y="431"/><rect fill="#F1F1F1" height="10" style="stroke:#181818;stroke-width:0.5;" width="15" x="354.5" y="436"/><rect fill="#F1F1F1" height="2" style="stroke:#181818;stroke-width:0.5;" width="4" x="352.5" y="438"/><rect fill="#F1F1F1" height="2" style="stroke:#181818;stroke-width:0.5;" width="4" x="352.5" y="442"/><text fill="#000000" font-family="sans-serif" font-size="14" lengthAdjust="spacing" textLength="41" x="308.5" y="463.9951">hidapi</text></g><!--MD5=[e1e675d5bbeb8a24602ec172a928a253]
entity hid--><g id="elem_hid"><rect fill="#F1F1F1" height="46.2969" rx="2.5" ry="2.5" style="stroke:#181818;stroke-width:0.5;" width="61" x="301.5" y="577"/><rect fill="#F1F1F1" height="10" style="stroke:#181818;stroke-width:0.5;" width="15" x="342.5" y="582"/><rect fill="#F1F1F1" height="2" style="stroke:#181818;stroke-width:0.5;" width="4" x="340.5" y="584"/><rect fill="#F1F1F1" height="2" style="stroke:#181818;stroke-width:0.5;" width="4" x="340.5" y="588"/><text fill="#000000" font-family="sans-serif" font-size="14" lengthAdjust="spacing" textLength="21" x="316.5" y="609.9951">hid</text></g><!--MD5=[effd8de157bcce3bded0fc5564b36d95]
entity libudev--><g id="elem_libudev"><rect fill="#F1F1F1" height="46.2969" rx="2.5" ry="2.5" style="stroke:#181818;stroke-width:0.5;" width="89" x="143.5" y="577"/><rect fill="#F1F1F1" height="10" style="stroke:#181818;stroke-width:0.5;" width="15" x="212.5" y="582"/><rect fill="#F1F1F1" height="2" style="stroke:#181818;stroke-width:0.5;" width="4" x="210.5" y="584"/><rect fill="#F1F1F1" height="2" style="stroke:#181818;stroke-width:0.5;" width="4" x="210.5" y="588"/><text fill="#000000" font-family="sans-serif" font-size="14" lengthAdjust="spacing" textLength="49" x="158.5" y="609.9951">libudev</text></g><text fill="#000000" font-family="sans-serif" font-size="14" lengthAdjust="spacing" textLength="64" x="6" y="693.6982">channel1</text><rect fill="#F1F1F1" height="12" style="stroke:#181818;stroke-width:1.5;" width="12" x="32" y="709"/><text fill="#000000" font-family="sans-serif" font-size="14" lengthAdjust="spacing" textLength="64" x="88" y="693.6982">channel2</text><rect fill="#F1F1F1" height="12" style="stroke:#181818;stroke-width:1.5;" width="12" x="114" y="709"/><text fill="#000000" font-family="sans-serif" font-size="14" lengthAdjust="spacing" textLength="65" x="169.5" y="693.6982">channelN</text><rect fill="#F1F1F1" height="12" style="stroke:#181818;stroke-width:1.5;" width="12" x="196" y="709"/><!--MD5=[6adf806993c4fed3f755089b7e3c05bf]
entity USB--><g id="elem_USB"><ellipse cx="270" cy="715" fill="#F1F1F1" rx="8" ry="8" style="stroke:#181818;stroke-width:0.5;"/><text fill="#000000" font-family="sans-serif" font-size="14" lengthAdjust="spacing" textLength="29" x="255.5" y="744.9951">USB</text></g><!--MD5=[9980be0e05ac8610e5d822002103eb21]
link libcpputils to liblightargparser--><!--MD5=[e80fb4af0278d2a8eb9a6a083d69fa8b]
link liblightargparser to logger--><!--MD5=[a6d4420b3616895077a267c747061d95]
link logger to jsoncpp--><!--MD5=[44832be9fd60857b3bea95b2e32f3479]
link package_usb_relay_module to package_utils--><g id="link_package_usb_relay_module_package_utils"><path d="M503.0643,139.044 C503.1414,139.2642 503.2189,139.4857 503.2968,139.7083 C503.6085,140.5989 503.9269,141.5083 504.2514,142.4355 C509.4441,157.2703 516.2281,176.6519 523.0113,196.0313 C529.7944,215.4106 536.5766,234.7878 541.7655,249.6139 C542.0898,250.5405 542.4079,251.4494 542.7193,252.3394 C542.7972,252.5618 542.8747,252.7832 542.9517,253.0033 " fill="none" id="package_usb_relay_module-to-package_utils" style="stroke:#181818;stroke-width:1.0;"/><polygon fill="#181818" points="542.9517,253.0033,543.7541,243.1872,541.3,248.2839,536.2032,245.8298,542.9517,253.0033" style="stroke:#181818;stroke-width:1.0;"/><text fill="#000000" font-family="sans-serif" font-size="13" lengthAdjust="spacing" textLength="30" x="521" y="183.0669">uses</text></g><!--MD5=[851f42911340a5dbcaa281c4c71e0667]
link getrelay to libusbrelaymodule--><g id="link_getrelay_libusbrelaymodule"><path d="M270,138.25 C270,167.14 270,217.57 270,248.73 " fill="none" id="getrelay-to-libusbrelaymodule" style="stroke:#181818;stroke-width:1.0;"/><polygon fill="#181818" points="270,253.94,274,244.94,270,248.94,266,244.94,270,253.94" style="stroke:#181818;stroke-width:1.0;"/><text fill="#000000" font-family="sans-serif" font-size="13" lengthAdjust="spacing" textLength="30" x="271" y="183.0669">uses</text></g><!--MD5=[87281aa878b3fd4f488176b0f4fa17d1]
link setrelay to libusbrelaymodule--><g id="link_setrelay_libusbrelaymodule"><path d="M381.92,138.25 C358.15,167.5 316.46,218.82 291.22,249.88 " fill="none" id="setrelay-to-libusbrelaymodule" style="stroke:#181818;stroke-width:1.0;"/><polygon fill="#181818" points="287.92,253.94,296.6979,249.4737,291.0713,250.0581,290.4869,244.4315,287.92,253.94" style="stroke:#181818;stroke-width:1.0;"/><text fill="#000000" font-family="sans-serif" font-size="13" lengthAdjust="spacing" textLength="30" x="356" y="183.0669">uses</text></g><!--MD5=[71fbcf37e3be0533230f292abc2274c4]
link relaybox to libusbrelaymodule--><g id="link_relaybox_libusbrelaymodule"><path d="M139.13,138.25 C167.04,167.62 216.08,219.24 245.55,250.26 " fill="none" id="relaybox-to-libusbrelaymodule" style="stroke:#181818;stroke-width:1.0;"/><polygon fill="#181818" points="249.04,253.94,245.747,244.658,245.5985,250.3129,239.9436,250.1644,249.04,253.94" style="stroke:#181818;stroke-width:1.0;"/><text fill="#000000" font-family="sans-serif" font-size="13" lengthAdjust="spacing" textLength="30" x="186" y="183.0669">uses</text></g><!--MD5=[80f42eb7d9031ff90c91bad352f1cbf1]
link libusbrelaymodule to libhidapi_hidraw--><g id="link_libusbrelaymodule_libhidapi_hidraw"><path d="M249.44,300.19 C238.22,313.28 224.86,330.64 216,348 C203.28,372.92 194.94,403.9 190.14,425.73 " fill="none" id="libusbrelaymodule-to-libhidapi_hidraw" style="stroke:#181818;stroke-width:1.0;"/><polygon fill="#181818" points="189.06,430.79,194.8506,422.8233,190.1037,425.9002,187.0269,421.1533,189.06,430.79" style="stroke:#181818;stroke-width:1.0;"/><text fill="#000000" font-family="sans-serif" font-size="13" lengthAdjust="spacing" textLength="30" x="237.5" y="361.0669">uses</text><text fill="#000000" font-family="sans-serif" font-size="13" lengthAdjust="spacing" textLength="67" x="221" y="376.1997">if Linux OS</text></g><!--MD5=[10a675e9a9f57e9210210316e288079b]
link libusbrelaymodule to hidapi--><g id="link_libusbrelaymodule_hidapi"><path d="M278.11,300.16 C289.81,332.16 311.41,391.24 324.06,425.82 " fill="none" id="libusbrelaymodule-to-hidapi" style="stroke:#181818;stroke-width:1.0;"/><polygon fill="#181818" points="325.86,430.74,326.5076,420.9125,324.1341,426.0473,318.9993,423.6739,325.86,430.74" style="stroke:#181818;stroke-width:1.0;"/><text fill="#000000" font-family="sans-serif" font-size="13" lengthAdjust="spacing" textLength="30" x="338" y="361.0669">uses</text><text fill="#000000" font-family="sans-serif" font-size="13" lengthAdjust="spacing" textLength="88" x="311" y="376.1997">if Windows OS</text></g><!--MD5=[f5a424eae41f88ad97507622ebb410a2]
link hidapi to hid--><g id="link_hidapi_hid"><path d="M333.69,477.18 C333.34,502.48 332.77,543.86 332.39,571.27 " fill="none" id="hidapi-to-hid" style="stroke:#181818;stroke-width:1.0;"/><polygon fill="#181818" points="332.31,576.55,336.4382,567.6081,332.3814,571.5505,328.439,567.4938,332.31,576.55" style="stroke:#181818;stroke-width:1.0;"/><text fill="#000000" font-family="sans-serif" font-size="13" lengthAdjust="spacing" textLength="30" x="335" y="522.0669">uses</text></g><!--MD5=[0a0d82de805748eafbb1644974ed7a57]
link libhidapi_hidraw to libudev--><g id="link_libhidapi_hidraw_libudev"><path d="M185.46,477.18 C185.99,502.48 186.85,543.86 187.42,571.27 " fill="none" id="libhidapi_hidraw-to-libudev" style="stroke:#181818;stroke-width:1.0;"/><polygon fill="#181818" points="187.53,576.55,191.3492,567.4718,187.43,571.551,183.3508,567.6318,187.53,576.55" style="stroke:#181818;stroke-width:1.0;"/><text fill="#000000" font-family="sans-serif" font-size="13" lengthAdjust="spacing" textLength="30" x="188" y="522.0669">uses</text></g><!--MD5=[0405f114b41bcc6ed4decbc3881e7774]
link hid to USB--><g id="link_hid_USB"><path d="M319.9,623.06 C308.02,644.7 290.16,677.26 279.34,696.98 " fill="none" id="hid-to-USB" style="stroke:#181818;stroke-width:1.0;"/><path d="M283.4167,707.1296 A9,9 0 0 0 268.5787 699.0098" fill="none" style="stroke:#181818;stroke-width:1.5;"/></g><!--MD5=[aa3858f40cc7b452f22fdc9a003f0709]
link libudev to USB--><g id="link_libudev_USB"><path d="M204.01,623.06 C219.86,644.9 243.77,677.86 258.04,697.52 " fill="none" id="libudev-to-USB" style="stroke:#181818;stroke-width:1.0;"/><path d="M269.0709,698.3142 A9,9 0 0 0 255.3759 708.2412" fill="none" style="stroke:#181818;stroke-width:1.5;"/></g><!--MD5=[c7d19da59e501536a532c976e1a8aa54]
reverse link USB to relay--><g id="link_USB_relay"><path d="M262.93,733.75 C256.86,747.21 247.03,765.47 234,778 C231.59,780.3175 229.0533,782.5411 226.4152,784.6734 C225.0962,785.7396 223.7519,786.783 222.3853,787.8038 C221.7021,788.3143 221.0133,788.8191 220.3193,789.3183 C220.2326,789.3808 220.1458,789.4431 220.0589,789.5053 " fill="none" id="USB-backto-relay" style="stroke:#181818;stroke-width:1.0;"/><path d="M257.9919,723.7283 A9,9 0 0 0 273.5685 730.3212" fill="none" style="stroke:#181818;stroke-width:1.5;"/></g><rect fill="#DDDDDD" height="64.8906" id="_legend" rx="7.5" ry="7.5" style="stroke:#000000;stroke-width:1.0;" width="225" x="8" y="889"/><text fill="#000000" font-family="sans-serif" font-size="14" lengthAdjust="spacing" textLength="52" x="14" y="907.9951">Legend</text><text fill="#000000" font-family="sans-serif" font-size="14" lengthAdjust="spacing" textLength="50" x="18" y="926.292">Symbol</text><text fill="#000000" font-family="sans-serif" font-size="14" lengthAdjust="spacing" textLength="59" x="104" y="926.292">Meaning</text><rect fill="#90EE90" height="16.2969" style="stroke:none;stroke-width:1.0;" width="62" x="14" y="929.5938"/><text fill="#000000" font-family="sans-serif" font-size="14" lengthAdjust="spacing" textLength="4" x="14" y="942.5889"> </text><text fill="#000000" font-family="sans-serif" font-size="14" lengthAdjust="spacing" textLength="143" x="80" y="942.5889">nkh-lab components</text><line style="stroke:#000000;stroke-width:1.0;" x1="14" x2="227" y1="913.2969" y2="913.2969"/><line style="stroke:#000000;stroke-width:1.0;" x1="14" x2="227" y1="929.5938" y2="929.5938"/><line style="stroke:#000000;stroke-width:1.0;" x1="14" x2="227" y1="945.8906" y2="945.8906"/><line style="stroke:#000000;stroke-width:1.0;" x1="14" x2="14" y1="913.2969" y2="945.8906"/><line style="stroke:#000000;stroke-width:1.0;" x1="76" x2="76" y1="913.2969" y2="945.8906"/><line style="stroke:#000000;stroke-width:1.0;" x1="227" x2="227" y1="913.2969" y2="945.8906"/><!--MD5=[1b01d56d8f78cc888efd37345651973f]
@startuml

package "USB Relay Module" as package_usb_relay_module {

    package "CLI Apps" as package_cli_apps {
        component getrelay #LightGreen
        component setrelay #LightGreen
    }

    package "GUI App" as package_gui_app {
        component relaybox #LightGreen
    }

    component libusbrelaymodule #LightGreen
}

package "Utils" as package_utils {
    component libcpputils #LightGreen
    component liblightargparser #LightGreen
    component logger #LightGreen
    component jsoncpp

    libcpputils -[hidden]d-> liblightargparser
    liblightargparser -[hidden]d-> logger
    logger -[hidden]d-> jsoncpp
}

package "hidapi" as package_hidapi {
    component "libhidapi-hidraw" as libhidapi_hidraw
    component hidapi
}


package "Windows OS" {
    component hid
}

package "Linux OS" {
    component libudev
}

node "USB Relay" as relay {
    port channel1
    port channel2
    port channelN
}

interface USB

package_usb_relay_module - -> package_utils : uses

getrelay -d-> libusbrelaymodule : uses

setrelay -d-> libusbrelaymodule : uses
relaybox -d-> libusbrelaymodule : uses

libusbrelaymodule -d-> libhidapi_hidraw : uses\n if Linux OS
libusbrelaymodule -d-> hidapi : uses\n if Windows OS

hidapi -d-> hid : uses

libhidapi_hidraw -d-> libudev : uses

hid -d-( USB
libudev -d-( USB

relay -u-( USB

legend left
    Legend
    | Symbol  |       Meaning       |
    |<#LightGreen>| nkh-lab components |
endlegend

@enduml

PlantUML version 1.2022.7(Mon Aug 22 19:01:30 CEST 2022)
(GPL source distribution)
Java Runtime: OpenJDK Runtime Environment
JVM: OpenJDK 64-Bit Server VM
Default Encoding: UTF-8
Language: en
Country: US
--></g></svg>